<svg width="100" height="100" viewBox="0 0 100 100" fill="none" xmlns="http://www.w3.org/2000/svg">
<rect width="100" height="100" fill="#F8F8F8"/>
<path opacity="0.95" d="M25.9939 73.1589V85.5749L36.7367 79.3616V66.9562L25.9939 73.1589Z" fill="#414042"/>
<path opacity="0.5" d="M24.2674 73.1589V85.5749L13.5246 79.3616V66.9562L24.2674 73.1589Z" fill="#414042"/>
<path opacity="0.3" d="M25.9939 59.7516V71.1659L35.8841 65.4534L25.9939 59.7516Z" fill="#414042"/>
<path opacity="0.75" d="M24.2674 59.7516L14.3772 65.4534L24.2674 71.1659V59.7516Z" fill="#414042"/>
<path opacity="0.95" d="M24.2674 56.7036V44.2875L13.5246 50.5009V62.9063L24.2674 56.7036Z" fill="#414042"/>
<path opacity="0.95" d="M25.9939 27.8323V40.2483L36.7367 34.035V21.6295L25.9939 27.8323Z" fill="#414042"/>
<path opacity="0.5" d="M24.2674 27.8323V40.2483L13.5246 34.035V21.6295L24.2674 27.8323Z" fill="#414042"/>
<path opacity="0.3" d="M25.9939 14.425V25.8393L35.8841 20.1268L25.9939 14.425Z" fill="#414042"/>
<path opacity="0.75" d="M24.2674 14.425L14.3772 20.1268L24.2674 25.8393V14.425Z" fill="#414042"/>
<path opacity="0.75" d="M14.3772 36.5075V47.9324L24.2674 42.22L14.3772 36.5075Z" fill="#414042"/>
<path opacity="0.15" d="M35.8841 36.5075L25.9939 42.22L35.8841 47.9324V36.5075Z" fill="#414042"/>
<path opacity="0.5" d="M25.9939 56.7036V44.2875L36.7367 50.5009V62.9063L25.9939 56.7036Z" fill="#414042"/>
<path opacity="0.95" d="M51.0391 73.1589V85.5749L61.7819 79.3616V66.9562L51.0391 73.1589Z" fill="#414042"/>
<path opacity="0.5" d="M49.3126 73.1589V85.5749L38.5698 79.3616V66.9562L49.3126 73.1589Z" fill="#414042"/>
<path opacity="0.3" d="M51.0391 59.7516V71.1659L60.9293 65.4534L51.0391 59.7516Z" fill="#414042"/>
<path opacity="0.75" d="M49.3128 59.7516L39.4225 65.4534L49.3128 71.1659V59.7516Z" fill="#414042"/>
<path opacity="0.95" d="M49.3126 56.7036V44.2875L38.5698 50.5009V62.9063L49.3126 56.7036Z" fill="#414042"/>
<path opacity="0.95" d="M51.0391 27.8323V40.2483L61.7819 34.035V21.6295L51.0391 27.8323Z" fill="#414042"/>
<path opacity="0.5" d="M49.3126 27.8323V40.2483L38.5698 34.035V21.6295L49.3126 27.8323Z" fill="#414042"/>
<path opacity="0.3" d="M51.0391 14.425V25.8393L60.9293 20.1268L51.0391 14.425Z" fill="#414042"/>
<path opacity="0.75" d="M49.3128 14.425L39.4225 20.1268L49.3128 25.8393V14.425Z" fill="#414042"/>
<path opacity="0.75" d="M39.4225 36.5075V47.9324L49.3128 42.22L39.4225 36.5075Z" fill="#414042"/>
<path opacity="0.15" d="M60.9293 36.5075L51.0391 42.22L60.9293 47.9324V36.5075Z" fill="#414042"/>
<path opacity="0.5" d="M51.0391 56.7036V44.2875L61.7819 50.5009V62.9063L51.0391 56.7036Z" fill="#414042"/>
<path opacity="0.95" d="M75.722 73.1589V85.5749L86.4754 79.3616V66.9562L75.722 73.1589Z" fill="#414042"/>
<path opacity="0.5" d="M74.0062 73.1589V85.5749L63.2527 79.3616V66.9562L74.0062 73.1589Z" fill="#414042"/>
<path opacity="0.3" d="M75.722 59.7516V71.1659L85.6121 65.4534L75.722 59.7516Z" fill="#414042"/>
<path opacity="0.75" d="M74.0062 59.7516L64.116 65.4534L74.0062 71.1659V59.7516Z" fill="#414042"/>
<path opacity="0.95" d="M74.0062 56.7036V44.2875L63.2527 50.5009V62.9063L74.0062 56.7036Z" fill="#414042"/>
<path opacity="0.95" d="M75.722 27.8323V40.2483L86.4754 34.035V21.6295L75.722 27.8323Z" fill="#414042"/>
<path opacity="0.5" d="M74.0062 27.8323V40.2483L63.2527 34.035V21.6295L74.0062 27.8323Z" fill="#414042"/>
<path opacity="0.3" d="M75.722 14.425V25.8393L85.6121 20.1268L75.722 14.425Z" fill="#414042"/>
<path opacity="0.75" d="M74.0062 14.425L64.116 20.1268L74.0062 25.8393V14.425Z" fill="#414042"/>
<path opacity="0.75" d="M64.116 36.5075V47.9324L74.0062 42.22L64.116 36.5075Z" fill="#414042"/>
<path opacity="0.15" d="M85.6121 36.5075L75.722 42.22L85.6121 47.9324V36.5075Z" fill="#414042"/>
<path opacity="0.5" d="M75.722 56.7036V44.2875L86.4754 50.5009V62.9063L75.722 56.7036Z" fill="#414042"/>
</svg>
