<svg width="100" height="100" viewBox="0 0 100 100" fill="none" xmlns="http://www.w3.org/2000/svg">
<rect width="100" height="100" fill="#F8F8F8"/>
<path d="M86.7487 72.1511C86.1394 71.1812 85.3428 70.3425 84.4055 69.6839C83.4683 69.0254 82.4092 68.5604 81.2901 68.3158C77.0086 67.32 73.2954 64.67 70.9617 60.9448C68.6281 57.2196 67.8639 52.7221 68.836 48.4352C69.2098 46.7783 69.0856 45.0479 68.4791 43.4613C67.8727 41.8747 66.8109 40.5026 65.4273 39.5176C64.0435 38.5325 62.3996 37.9782 60.7018 37.9243C59.0042 37.8705 57.3285 38.3194 55.8851 39.2147C54.4417 40.1102 53.2951 41.4121 52.5892 42.957C51.8834 44.502 51.6497 46.221 51.9177 47.8983C52.1856 49.5756 52.9432 51.1363 54.0953 52.3845C55.2472 53.6326 56.7425 54.5126 58.3929 54.9136C60.5282 55.3953 62.5474 56.2936 64.3347 57.5571C66.1221 58.8206 67.6426 60.4245 68.8089 62.2767C69.9752 64.129 70.7645 66.1932 71.1315 68.351C71.4986 70.5089 71.4361 72.718 70.9477 74.8517C70.6585 76.2273 70.71 77.6526 71.0979 79.0035C71.4858 80.3545 72.1983 81.59 73.1732 82.6027C74.148 83.6152 75.3556 84.374 76.6909 84.8129C78.0262 85.2517 79.4485 85.3573 80.8339 85.1205C82.2195 84.8838 83.526 84.3117 84.6397 83.4543C85.7535 82.5969 86.6405 81.4801 87.2238 80.2013C87.807 78.9224 88.0686 77.5203 87.9859 76.1173C87.903 74.7141 87.4784 73.3525 86.7487 72.1511Z" fill="#414042"/>
<path d="M33.7575 62.5842C35.2653 63.407 36.9844 63.7606 38.6944 63.5995C40.4045 63.4384 42.0273 62.7701 43.3549 61.6803C44.6825 60.5904 45.6542 59.1288 46.1452 57.4829C46.6364 55.837 46.6244 54.0819 46.111 52.4428C45.4603 50.3527 45.2285 48.1549 45.429 45.9751C45.6294 43.7953 46.258 41.6765 47.2789 39.7402C48.2998 37.8038 49.6929 36.088 51.3782 34.6911C53.0635 33.2941 55.0079 32.2437 57.1 31.5998C58.7226 31.0915 60.1585 30.1147 61.2272 28.7922C62.2959 27.4698 62.9496 25.8608 63.1059 24.1677C63.2623 22.4746 62.9144 20.773 62.106 19.2773C61.2976 17.7814 60.0648 16.5581 58.5628 15.7613C57.0608 14.9645 55.3566 14.6297 53.6649 14.7992C51.973 14.9686 50.3691 15.6346 49.0549 16.7136C47.7407 17.7924 46.7751 19.2359 46.2793 20.8623C45.7836 22.4887 45.78 24.2254 46.2691 25.8538C47.5527 30.0579 47.1186 34.5994 45.0619 38.4841C43.005 42.3689 39.4931 45.2806 35.2945 46.582C33.6371 47.0627 32.162 48.0297 31.0604 49.3581C29.9588 50.6866 29.2813 52.3151 29.1157 54.0328C28.9502 55.7506 29.3041 57.4786 30.1317 58.9929C30.9593 60.5073 32.2224 61.7384 33.7575 62.5267V62.5842Z" fill="#414042"/>
<path d="M55.9365 61.1763C54.7906 61.2165 53.6643 61.485 52.6233 61.966C51.5824 62.447 50.648 63.1308 49.8746 63.9775C46.8744 67.1865 42.7255 69.0771 38.3353 69.236C33.945 69.3948 29.6703 67.8088 26.446 64.8249C25.6129 64.0432 24.6328 63.435 23.5625 63.0355C22.4923 62.6359 21.3533 62.4532 20.2118 62.4979C18.8067 62.5642 17.4391 62.9734 16.2286 63.6898C15.0179 64.4061 14.0012 65.4079 13.2669 66.6076C12.5325 67.8073 12.103 69.1686 12.0157 70.5725C11.9285 71.9766 12.1862 73.3805 12.7664 74.6619C13.3466 75.9433 14.2315 77.0633 15.3441 77.9241C16.4567 78.7848 17.763 79.3601 19.149 79.5998C20.5351 79.8395 21.9589 79.7363 23.2959 79.2993C24.633 78.8622 25.8427 78.1046 26.8194 77.0923C28.3054 75.4835 30.094 74.1837 32.083 73.2673C34.0721 72.3509 36.2223 71.8359 38.4107 71.7518C40.599 71.6678 42.7825 72.0162 44.836 72.7774C46.8895 73.5386 48.7726 74.6973 50.3775 76.1874C51.4223 77.1315 52.6826 77.8051 54.0479 78.1494C55.4134 78.4938 56.8424 78.4984 58.21 78.1627C59.5776 77.8271 60.842 77.1615 61.8928 76.2241C62.9437 75.2867 63.7488 74.106 64.2379 72.7855C64.7269 71.465 64.8849 70.0448 64.6982 68.649C64.5114 67.2533 63.9854 65.9247 63.1663 64.7791C62.3472 63.6337 61.26 62.7065 59.9997 62.0783C58.7393 61.4503 57.3442 61.1405 55.9365 61.1763Z" fill="#414042"/>
</svg>
