<svg width="100" height="100" viewBox="0 0 100 100" fill="none" xmlns="http://www.w3.org/2000/svg">
<rect width="100" height="100" fill="#F8F8F8"/>
<path d="M34.1626 21.037C32.9033 21.8651 31.8548 22.9791 31.1012 24.2893C30.3478 25.5995 29.9102 27.0694 29.824 28.5808V37.1718C29.9102 38.6833 30.3478 40.1532 31.1012 41.4634C31.8548 42.7737 32.9033 43.8876 34.1626 44.7156L43.1395 50.0406C45.5205 51.4251 47.478 50.2892 47.478 47.5201V18.41C47.478 15.641 45.5205 14.5051 43.1395 15.8896L34.1626 21.037Z" fill="#231F20"/>
<path d="M33.2274 46.5773C31.924 45.924 30.4838 45.5836 29.0232 45.5836C27.5626 45.5836 26.1224 45.924 24.819 46.5773L17.6437 50.6511C16.421 51.4429 15.4029 52.5082 14.6711 53.7611C13.9395 55.0141 13.5146 56.4196 13.4309 57.8649V67.8456C13.4309 70.4936 15.3319 71.5799 17.6437 70.256L41.9611 56.3374C44.2731 55.0134 44.2731 52.8577 41.9611 51.5336L33.2274 46.5773Z" fill="#231F20"/>
<path d="M65.8377 21.037C67.0969 21.8651 68.1454 22.9791 68.8989 24.2893C69.6525 25.5995 70.09 27.0694 70.1762 28.5808V37.1718C70.09 38.6833 69.6525 40.1532 68.8989 41.4634C68.1454 42.7737 67.0969 43.8876 65.8377 44.7156L56.8431 50.0406C54.4622 51.4251 52.5221 50.2892 52.5221 47.5201V18.41C52.5221 15.641 54.4622 14.5051 56.8431 15.8896L65.8377 21.037Z" fill="#231F20"/>
<path d="M65.9541 46.5773C67.3126 45.924 68.8136 45.5836 70.3358 45.5836C71.8581 45.5836 73.3592 45.924 74.7177 46.5773L82.1962 50.6511C83.4683 51.4438 84.5268 52.5097 85.2863 53.7627C86.0458 55.0157 86.4853 56.4209 86.5691 57.8649V67.8456C86.5691 70.4936 84.6058 71.5799 82.1962 70.256L56.8513 56.3374C54.4417 55.0134 54.4417 52.8577 56.8513 51.5336L65.9541 46.5773Z" fill="#231F20"/>
<path d="M28.9486 83.7082C30.2528 84.3607 31.6937 84.7007 33.1551 84.7007C34.6166 84.7007 36.0575 84.3607 37.3617 83.7082L44.5412 79.623C45.7627 78.8277 46.7787 77.7602 47.5078 76.5061C48.2368 75.252 48.6585 73.8463 48.7391 72.4019V62.4346C48.7391 59.7901 46.8544 58.7053 44.5412 60.0275L20.2099 73.9274C17.8967 75.2496 17.8967 77.4024 20.2099 78.7246L28.9486 83.7082Z" fill="#231F20"/>
<path d="M50 72.4101C50.0854 73.851 50.5253 75.2529 51.2847 76.5031C52.0442 77.7535 53.1018 78.8173 54.3729 79.6095L61.8515 83.7088C63.21 84.361 64.711 84.7006 66.2334 84.7006C67.7557 84.7006 69.2567 84.361 70.6151 83.7088L79.718 78.7117C82.1275 77.3904 82.1275 75.239 79.718 73.9177L54.3729 60.0271C51.9634 58.7058 50 59.79 50 62.4325V72.4101Z" fill="#231F20"/>
</svg>
