<svg width="100" height="100" viewBox="0 0 100 100" fill="none" xmlns="http://www.w3.org/2000/svg">
<rect width="100" height="100" fill="#F8F8F8"/>
<path d="M50 62.8379C48.0535 62.8466 46.1327 62.375 44.3952 61.462C42.6578 60.5489 41.153 59.2204 40.0046 57.5854L32 62.3682C32.3046 62.7335 32.6652 63.0437 33.0673 63.2863L47.3113 71.827C48.1438 72.2694 49.0652 72.5 50 72.5C50.9348 72.5 51.8562 72.2694 52.6887 71.827L66.9327 63.2863C67.3348 63.0437 67.6954 62.7335 68 62.3682L60.016 57.5C58.8743 59.1537 57.3703 60.5005 55.6284 61.4288C53.8866 62.3571 51.9571 62.8402 50 62.8379Z" fill="#414042"/>
<path d="M37.4673 49.949C37.4746 46.9125 38.6548 43.985 40.7823 41.7261C42.9098 39.4672 45.8355 38.0353 49 37.7041V28.5C48.5199 28.5952 48.058 28.7604 47.6306 28.9898L32.7815 37.1531C31.9744 37.6681 31.3033 38.3543 30.8208 39.1581C30.3382 39.9618 30.0573 40.8611 30 41.7857V58.1122C30.0066 58.5833 30.0858 59.051 30.2353 59.5L38.58 54.9082C37.8503 53.3473 37.4713 51.658 37.4673 49.949Z" fill="#414042"/>
<path d="M67.3649 37.1474L53.2973 28.9895C52.8925 28.7602 52.4549 28.5951 52 28.5V37.6776C53.9111 37.8955 55.7447 38.5617 57.3531 39.6229C58.9615 40.684 60.2998 42.1103 61.2602 43.7869C62.2206 45.4635 62.7762 47.3436 62.8824 49.2758C62.9886 51.208 62.6424 53.1382 61.8716 54.9112L69.7771 59.5C69.9187 59.0512 69.9938 58.5839 70 58.1132V41.7974C69.9488 40.8699 69.6841 39.9671 69.2268 39.1601C68.7694 38.3531 68.1321 37.6641 67.3649 37.1474Z" fill="#414042"/>
<path d="M77.6116 28.9711L54.3885 15.5403C53.0266 14.8562 51.5238 14.5 50 14.5C48.4762 14.5 46.9736 14.8562 45.6116 15.5403L22.3884 28.9711C21.1137 29.8027 20.0524 30.9228 19.29 32.2409C18.5277 33.559 18.0858 35.0381 18 36.5587V63.4202C18.0842 64.9441 18.5253 66.4268 19.2876 67.7485C20.0499 69.0703 21.1121 70.194 22.3884 71.0289L45.6116 84.46C46.9736 85.144 48.4762 85.5 50 85.5C51.5238 85.5 53.0266 85.144 54.3885 84.46L77.6116 71.0289C78.8879 70.194 79.9501 69.0703 80.7124 67.7485C81.4747 66.4268 81.9158 64.9441 82 63.4202V36.5587C81.9142 35.0381 81.4723 33.559 80.71 32.2409C79.9476 30.9228 78.8863 29.8027 77.6116 28.9711ZM74.6299 60.3305C74.5617 61.5012 74.2204 62.6395 73.6333 63.6542C73.0463 64.669 72.2298 65.5318 71.2493 66.1737L53.3595 76.5147C52.3145 77.043 51.1602 77.3183 49.9895 77.3183C48.8188 77.3183 47.6644 77.043 46.6195 76.5147L28.7507 66.1737C27.7702 65.5318 26.9537 64.669 26.3667 63.6542C25.7796 62.6395 25.4383 61.5012 25.3701 60.3305V39.6695C25.4383 38.4988 25.7796 37.3605 26.3667 36.3458C26.9537 35.331 27.7702 34.4681 28.7507 33.8263L46.5984 23.4853C47.6434 22.957 48.7977 22.6817 49.9685 22.6817C51.1392 22.6817 52.2936 22.957 53.3386 23.4853L71.2283 33.8263C72.2126 34.4658 73.0333 35.3277 73.6241 36.3426C74.2149 37.3574 74.5594 38.497 74.6299 39.6695V60.3305Z" fill="#414042"/>
<path d="M41 50C41 51.6811 41.5278 53.3245 42.5167 54.7223C43.5056 56.1202 44.9113 57.2096 46.5559 57.853C48.2004 58.4963 50.01 58.6646 51.7559 58.3367C53.5017 58.0087 55.1053 57.1992 56.3639 56.0104C57.6226 54.8217 58.4798 53.3071 58.8271 51.6583C59.1743 50.0094 58.9961 48.3004 58.3149 46.7472C57.6337 45.194 56.4803 43.8665 55.0002 42.9325C53.5202 41.9985 51.78 41.5 50 41.5C47.6131 41.5 45.3239 42.3955 43.6361 43.9896C41.9482 45.5837 41 47.7457 41 50Z" fill="#414042"/>
</svg>
