<svg width="106" height="35" viewBox="0 0 106 35" fill="none" xmlns="http://www.w3.org/2000/svg">
<g filter="url(#filter0_d_2536_119)">
<path d="M24.16 25.74V10.512L18.652 21.6H15.412L9.904 10.512V25.74H4V0.18H10.408L17.032 13.536L23.692 0.18H30.064V25.74H24.16Z" fill="white"/>
<path d="M43.1882 26.1C41.0282 26.1 39.1922 25.644 37.6802 24.732C36.1922 23.82 35.0523 22.62 34.2603 21.132C33.4683 19.644 33.0723 18.036 33.0723 16.308C33.0723 14.556 33.4683 12.936 34.2603 11.448C35.0523 9.96 36.2042 8.76 37.7162 7.848C39.2282 6.936 41.0522 6.48 43.1882 6.48C45.3242 6.48 47.1482 6.936 48.6602 7.848C50.1722 8.76 51.3242 9.96 52.1162 11.448C52.9082 12.936 53.3042 14.556 53.3042 16.308C53.3042 18.036 52.9082 19.644 52.1162 21.132C51.3242 22.62 50.1722 23.82 48.6602 24.732C47.1482 25.644 45.3242 26.1 43.1882 26.1ZM38.9762 16.308C38.9762 17.772 39.3722 18.96 40.1642 19.872C40.9803 20.784 41.9882 21.24 43.1882 21.24C44.3642 21.24 45.3482 20.784 46.1402 19.872C46.9562 18.96 47.3643 17.772 47.3643 16.308C47.3643 14.844 46.9562 13.656 46.1402 12.744C45.3482 11.832 44.3642 11.376 43.1882 11.376C41.9882 11.376 40.9803 11.832 40.1642 12.744C39.3722 13.656 38.9762 14.844 38.9762 16.308Z" fill="white"/>
<path d="M67.4649 25.92C65.7849 25.92 64.2009 25.608 62.7129 24.984C61.2489 24.336 59.9409 23.436 58.7889 22.284C57.6609 21.108 56.7729 19.728 56.1249 18.144C55.5009 16.536 55.1889 14.748 55.1889 12.78C55.1889 11.004 55.5009 9.348 56.1249 7.812C56.7729 6.276 57.6729 4.92 58.8249 3.744C60.0009 2.568 61.3569 1.656 62.8929 1.008C64.4529 0.335999 66.1329 0 67.9329 0C70.2849 0 72.3489 0.504001 74.1249 1.512C75.9249 2.52 77.2689 3.876 78.1569 5.58L73.7649 8.892C73.1889 7.764 72.3489 6.876 71.2449 6.228C70.1409 5.58 68.9649 5.256 67.7169 5.256C66.4209 5.256 65.2809 5.604 64.2969 6.3C63.3129 6.972 62.5449 7.896 61.9929 9.072C61.4409 10.248 61.1649 11.556 61.1649 12.996C61.1649 14.46 61.4529 15.78 62.0289 16.956C62.6049 18.108 63.3969 19.02 64.4049 19.692C65.4369 20.34 66.6249 20.664 67.9689 20.664C70.2729 20.664 72.3489 19.608 74.1969 17.496V16.668H69.2289V12.384H79.0929V25.74H74.1969V23.22C72.2529 25.02 70.0089 25.92 67.4649 25.92Z" fill="white"/>
<path d="M91.5281 26.1C89.3681 26.1 87.5321 25.644 86.0201 24.732C84.5321 23.82 83.3921 22.62 82.6001 21.132C81.8081 19.644 81.4121 18.036 81.4121 16.308C81.4121 14.556 81.8081 12.936 82.6001 11.448C83.3921 9.96 84.5441 8.76 86.0561 7.848C87.5681 6.936 89.3921 6.48 91.5281 6.48C93.6641 6.48 95.4881 6.936 97.0001 7.848C98.5121 8.76 99.6641 9.96 100.456 11.448C101.248 12.936 101.644 14.556 101.644 16.308C101.644 18.036 101.248 19.644 100.456 21.132C99.6641 22.62 98.5121 23.82 97.0001 24.732C95.4881 25.644 93.6641 26.1 91.5281 26.1ZM87.3161 16.308C87.3161 17.772 87.7121 18.96 88.5041 19.872C89.3201 20.784 90.3281 21.24 91.5281 21.24C92.7041 21.24 93.6881 20.784 94.4801 19.872C95.2961 18.96 95.7041 17.772 95.7041 16.308C95.7041 14.844 95.2961 13.656 94.4801 12.744C93.6881 11.832 92.7041 11.376 91.5281 11.376C90.3281 11.376 89.3201 11.832 88.5041 12.744C87.7121 13.656 87.3161 14.844 87.3161 16.308Z" fill="white"/>
</g>
<defs>
<filter id="filter0_d_2536_119" x="0" y="0" width="105.644" height="34.1001" filterUnits="userSpaceOnUse" color-interpolation-filters="sRGB">
<feFlood flood-opacity="0" result="BackgroundImageFix"/>
<feColorMatrix in="SourceAlpha" type="matrix" values="0 0 0 0 0 0 0 0 0 0 0 0 0 0 0 0 0 0 127 0" result="hardAlpha"/>
<feOffset dy="4"/>
<feGaussianBlur stdDeviation="2"/>
<feComposite in2="hardAlpha" operator="out"/>
<feColorMatrix type="matrix" values="0 0 0 0 0 0 0 0 0 0 0 0 0 0 0 0 0 0 0.25 0"/>
<feBlend mode="normal" in2="BackgroundImageFix" result="effect1_dropShadow_2536_119"/>
<feBlend mode="normal" in="SourceGraphic" in2="effect1_dropShadow_2536_119" result="shape"/>
</filter>
</defs>
</svg>
