<svg width="129" height="129" viewBox="0 0 129 129" fill="none" xmlns="http://www.w3.org/2000/svg">
<g opacity="0.1">
<path opacity="0.1" d="M127.62 124.62V127.62H124.62" stroke="#20263C" stroke-miterlimit="10"/>
<path opacity="0.1" d="M118.85 127.62H6.38" stroke="#20263C" stroke-miterlimit="10" stroke-dasharray="5.77 5.77"/>
<path opacity="0.1" d="M3.49997 127.62H0.5V124.62" stroke="#20263C" stroke-miterlimit="10"/>
<path opacity="0.1" d="M0.5 118.85V6.37988" stroke="#20263C" stroke-miterlimit="10" stroke-dasharray="5.77 5.77"/>
<path opacity="0.1" d="M0.5 3.5V0.5H3.49997" stroke="#20263C" stroke-miterlimit="10"/>
<path opacity="0.1" d="M9.26001 0.5H121.74" stroke="#20263C" stroke-miterlimit="10" stroke-dasharray="5.77 5.77"/>
<path opacity="0.1" d="M124.62 0.5H127.62V3.5" stroke="#20263C" stroke-miterlimit="10"/>
<path opacity="0.1" d="M127.62 9.25977V121.74" stroke="#20263C" stroke-miterlimit="10" stroke-dasharray="5.77 5.77"/>
</g>
<path d="M63.5 80.8379C61.5535 80.8466 59.6327 80.375 57.8952 79.462C56.1578 78.5489 54.653 77.2204 53.5046 75.5854L45.5 80.3682C45.8046 80.7335 46.1652 81.0437 46.5673 81.2863L60.8113 89.827C61.6438 90.2694 62.5652 90.5 63.5 90.5C64.4348 90.5 65.3562 90.2694 66.1887 89.827L80.4327 81.2863C80.8348 81.0437 81.1954 80.7335 81.5 80.3682L73.516 75.5C72.3743 77.1537 70.8703 78.5005 69.1284 79.4288C67.3866 80.3571 65.4571 80.8402 63.5 80.8379Z" fill="#414042"/>
<path d="M50.9673 67.949C50.9746 64.9125 52.1548 61.985 54.2823 59.7261C56.4098 57.4672 59.3355 56.0353 62.5 55.7041V46.5C62.0199 46.5952 61.558 46.7604 61.1306 46.9898L46.2815 55.1531C45.4744 55.6681 44.8033 56.3543 44.3208 57.1581C43.8382 57.9618 43.5573 58.8611 43.5 59.7857V76.1122C43.5066 76.5833 43.5858 77.051 43.7353 77.5L52.08 72.9082C51.3503 71.3473 50.9713 69.658 50.9673 67.949Z" fill="#414042"/>
<path d="M80.8649 55.1474L66.7973 46.9895C66.3925 46.7602 65.9549 46.5951 65.5 46.5V55.6776C67.4111 55.8955 69.2447 56.5617 70.8531 57.6229C72.4615 58.684 73.7998 60.1103 74.7602 61.7869C75.7206 63.4635 76.2762 65.3436 76.3824 67.2758C76.4886 69.208 76.1424 71.1382 75.3716 72.9112L83.2771 77.5C83.4187 77.0512 83.4938 76.5839 83.5 76.1132V59.7974C83.4488 58.8699 83.1841 57.9671 82.7268 57.1601C82.2694 56.3531 81.6321 55.6641 80.8649 55.1474Z" fill="#414042"/>
<path d="M91.1116 46.9711L67.8885 33.5403C66.5266 32.8562 65.0238 32.5 63.5 32.5C61.9762 32.5 60.4736 32.8562 59.1116 33.5403L35.8884 46.9711C34.6137 47.8027 33.5524 48.9228 32.79 50.2409C32.0277 51.559 31.5858 53.0381 31.5 54.5587V81.4202C31.5842 82.9441 32.0253 84.4268 32.7876 85.7485C33.5499 87.0703 34.6121 88.194 35.8884 89.0289L59.1116 102.46C60.4736 103.144 61.9762 103.5 63.5 103.5C65.0238 103.5 66.5266 103.144 67.8885 102.46L91.1116 89.0289C92.3879 88.194 93.4501 87.0703 94.2124 85.7485C94.9747 84.4268 95.4158 82.9441 95.5 81.4202V54.5587C95.4142 53.0381 94.9723 51.559 94.21 50.2409C93.4476 48.9228 92.3863 47.8027 91.1116 46.9711ZM88.1299 78.3305C88.0617 79.5012 87.7204 80.6395 87.1333 81.6542C86.5463 82.669 85.7298 83.5318 84.7493 84.1737L66.8595 94.5147C65.8145 95.043 64.6602 95.3183 63.4895 95.3183C62.3188 95.3183 61.1644 95.043 60.1195 94.5147L42.2507 84.1737C41.2702 83.5318 40.4537 82.669 39.8667 81.6542C39.2796 80.6395 38.9383 79.5012 38.8701 78.3305V57.6695C38.9383 56.4988 39.2796 55.3605 39.8667 54.3458C40.4537 53.331 41.2702 52.4681 42.2507 51.8263L60.0984 41.4853C61.1434 40.957 62.2977 40.6817 63.4685 40.6817C64.6392 40.6817 65.7936 40.957 66.8386 41.4853L84.7283 51.8263C85.7126 52.4658 86.5333 53.3277 87.1241 54.3426C87.7149 55.3574 88.0594 56.497 88.1299 57.6695V78.3305Z" fill="#414042"/>
<path d="M54.5 68C54.5 69.6811 55.0278 71.3245 56.0167 72.7223C57.0056 74.1202 58.4113 75.2096 60.0559 75.853C61.7004 76.4963 63.51 76.6646 65.2559 76.3367C67.0017 76.0087 68.6053 75.1992 69.8639 74.0104C71.1226 72.8217 71.9798 71.3071 72.3271 69.6583C72.6743 68.0094 72.4961 66.3004 71.8149 64.7472C71.1337 63.194 69.9803 61.8665 68.5002 60.9325C67.0202 59.9985 65.28 59.5 63.5 59.5C61.1131 59.5 58.8239 60.3955 57.1361 61.9896C55.4482 63.5837 54.5 65.7457 54.5 68Z" fill="#414042"/>
</svg>
