<svg width="129" height="129" viewBox="0 0 129 129" fill="none" xmlns="http://www.w3.org/2000/svg">
<g opacity="0.1">
<path opacity="0.1" d="M127.62 124.62V127.62H124.62" stroke="#20263C" stroke-miterlimit="10"/>
<path opacity="0.1" d="M118.86 127.62H6.37988" stroke="#20263C" stroke-miterlimit="10" stroke-dasharray="5.77 5.77"/>
<path opacity="0.1" d="M3.5 127.62H0.5V124.62" stroke="#20263C" stroke-miterlimit="10"/>
<path opacity="0.1" d="M0.5 118.86V6.37988" stroke="#20263C" stroke-miterlimit="10" stroke-dasharray="5.77 5.77"/>
<path opacity="0.1" d="M0.5 3.5V0.5H3.5" stroke="#20263C" stroke-miterlimit="10"/>
<path opacity="0.1" d="M9.27002 0.5H121.74" stroke="#20263C" stroke-miterlimit="10" stroke-dasharray="5.77 5.77"/>
<path opacity="0.1" d="M124.62 0.5H127.62V3.5" stroke="#20263C" stroke-miterlimit="10"/>
<path opacity="0.1" d="M127.62 9.27002V121.74" stroke="#20263C" stroke-miterlimit="10" stroke-dasharray="5.77 5.77"/>
</g>
<path d="M50.5807 36.8972C49.5821 37.5534 48.7506 38.4363 48.153 39.4746C47.5555 40.5129 47.2085 41.6778 47.1401 42.8756V49.6839C47.2085 50.8817 47.5555 52.0466 48.153 53.0849C48.7506 54.1233 49.5821 55.0061 50.5807 55.6623L57.6996 59.8823C59.5877 60.9795 61.1401 60.0793 61.1401 57.8848V34.8153C61.1401 32.6209 59.5877 31.7207 57.6996 32.8179L50.5807 36.8972Z" fill="#231F20"/>
<path d="M49.8391 57.1376C48.8055 56.6199 47.6634 56.3501 46.5051 56.3501C45.3468 56.3501 44.2047 56.6199 43.1711 57.1376L37.4809 60.3661C36.5113 60.9936 35.7039 61.8378 35.1236 62.8307C34.5434 63.8237 34.2065 64.9376 34.1401 66.083V73.9926C34.1401 76.0911 35.6476 76.952 37.4809 75.9028L56.7651 64.8724C58.5985 63.8232 58.5985 62.1148 56.7651 61.0655L49.8391 57.1376Z" fill="#231F20"/>
<path d="M75.6996 36.8972C76.6982 37.5534 77.5297 38.4363 78.1272 39.4746C78.7248 40.5129 79.0718 41.6778 79.1401 42.8756V49.6839C79.0718 50.8817 78.7248 52.0466 78.1272 53.0849C77.5297 54.1233 76.6982 55.0061 75.6996 55.6623L68.5667 59.8823C66.6786 60.9795 65.1401 60.0793 65.1401 57.8848V34.8153C65.1401 32.6209 66.6786 31.7207 68.5667 32.8179L75.6996 36.8972Z" fill="#231F20"/>
<path d="M75.792 57.1376C76.8693 56.6199 78.0596 56.3501 79.2668 56.3501C80.474 56.3501 81.6644 56.6199 82.7417 57.1376L88.6723 60.3661C89.6811 60.9943 90.5205 61.839 91.1228 62.832C91.7251 63.825 92.0736 64.9386 92.1401 66.083V73.9926C92.1401 76.0911 90.5831 76.952 88.6723 75.9028L68.5733 64.8724C66.6624 63.8232 66.6624 62.1148 68.5733 61.0655L75.792 57.1376Z" fill="#231F20"/>
<path d="M46.4459 86.5636C47.4801 87.0807 48.6228 87.3501 49.7817 87.3501C50.9407 87.3501 52.0834 87.0807 53.1176 86.5636L58.8111 83.3261C59.7798 82.6958 60.5855 81.8498 61.1637 80.856C61.7418 79.8621 62.0762 78.7481 62.1401 77.6034V69.7044C62.1401 67.6087 60.6455 66.749 58.8111 67.7968L39.5159 78.8124C37.6815 79.8602 37.6815 81.5663 39.5159 82.6141L46.4459 86.5636Z" fill="#231F20"/>
<path d="M63.1401 77.6099C63.2078 78.7518 63.5567 79.8628 64.1589 80.8536C64.7612 81.8445 65.5999 82.6876 66.6079 83.3154L72.5386 86.5641C73.6159 87.0809 74.8062 87.3501 76.0135 87.3501C77.2207 87.3501 78.411 87.0809 79.4883 86.5641L86.707 82.6039C88.6178 81.5568 88.6178 79.8518 86.707 78.8047L66.6079 67.7965C64.6971 66.7494 63.1401 67.6086 63.1401 69.7028V77.6099Z" fill="#231F20"/>
</svg>
